<svg width="64" height="64" viewBox="0 0 64 64" fill="none" xmlns="http://www.w3.org/2000/svg">
<path fill-rule="evenodd" clip-rule="evenodd" d="M32 49C41.3888 49 49 41.3888 49 32C49 22.6112 41.3888 15 32 15C22.6112 15 15 22.6112 15 32C15 41.3888 22.6112 49 32 49ZM32 64C49.6731 64 64 49.6731 64 32C64 14.3269 49.6731 0 32 0C14.3269 0 0 14.3269 0 32C0 49.6731 14.3269 64 32 64Z" fill="#A7A7A7"/>
<path fill-rule="evenodd" clip-rule="evenodd" d="M56.4817 24.4421C60.6238 24.4323 63.9896 27.7822 63.9994 31.9244C64.0124 37.4458 62.5966 42.8767 59.8895 47.6891C57.1824 52.5014 53.2762 56.5314 48.5506 59.3872C43.825 62.243 38.4409 63.8276 32.9217 63.9867C27.4025 64.1458 21.936 62.8741 17.0538 60.2953C13.3912 58.3607 11.9904 53.8233 13.925 50.1607C15.8596 46.4981 20.397 45.0973 24.0596 47.0319C26.6533 48.4019 29.5573 49.0774 32.4894 48.9929C35.4215 48.9084 38.2818 48.0666 40.7923 46.5494C43.3027 45.0323 45.3779 42.8913 46.816 40.3348C48.2542 37.7783 49.0064 34.8931 48.9994 31.9598C48.9896 27.8177 52.3396 24.4519 56.4817 24.4421Z" fill="#757575"/>
<path fill-rule="evenodd" clip-rule="evenodd" d="M36.4253 15.5862C33.835 14.8878 31.1162 14.8123 28.4912 15.3659C24.4382 16.2207 20.4597 13.6281 19.6049 9.57515C18.7501 5.52218 21.3427 1.54363 25.3957 0.688825C30.3369 -0.353325 35.4546 -0.211237 40.3304 1.10347C45.2062 2.41818 49.7016 4.86818 53.4491 8.25316C57.1966 11.6381 60.0898 15.862 61.8921 20.5793C63.6944 25.2967 64.3546 30.3737 63.8189 35.3951C63.3794 39.5138 59.6842 42.4965 55.5655 42.057C51.4467 41.6176 48.4641 37.9224 48.9035 33.8036C49.1882 31.136 48.8374 28.4389 47.8799 25.9328C46.9225 23.4267 45.3855 21.1828 43.3946 19.3845C41.4037 17.5862 39.0155 16.2847 36.4253 15.5862Z" fill="#575757"/>
</svg>
